{"glyphs":{"0":{"ha":950,"x_min":0,"x_max":0,"o":"m 475 151 b 240 486 304 151 240 331 b 475 821 240 642 304 821 b 710 486 646 821 710 642 b 475 151 710 331 646 151 z m 475 989 b 54 486 169 989 54 718 b 475 -17 54 254 169 -17 b 896 486 781 -17 896 254 b 475 989 896 718 781 989 z "},"1":{"ha":543,"x_min":0,"x_max":0,"o":"m 279 972 l 465 972 l 465 0 l 279 0 l 279 583 b 303 750 279 676 303 750 l 279 750 b 40 540 254 650 172 542 l 40 715 b 279 972 214 719 279 839 z "},"2":{"ha":883,"x_min":0,"x_max":0,"o":"m 525 168 l 821 168 l 821 0 l 79 0 l 79 147 b 438 461 79 147 361 396 b 622 690 511 525 622 622 b 438 821 622 751 569 821 b 254 689 307 821 254 750 b 254 657 254 679 254 668 l 68 657 b 68 689 68 667 68 678 b 440 989 68 828 175 989 b 808 689 701 989 808 828 b 651 422 808 578 711 476 b 361 168 588 365 361 168 l 361 143 b 525 168 361 143 435 168 z "},"3":{"ha":840,"x_min":0,"x_max":0,"o":"m 783 299 b 417 -17 783 133 660 -17 b 49 279 174 -17 49 133 b 49 292 49 283 49 288 l 235 292 b 235 279 235 288 235 283 b 417 151 235 213 303 151 b 597 321 532 151 597 213 b 422 471 597 419 521 471 l 221 471 l 221 614 l 456 804 l 104 804 l 104 972 l 747 972 l 747 838 l 433 581 l 433 556 b 540 568 433 556 485 575 b 783 299 632 556 783 489 z "},"4":{"ha":975,"x_min":0,"x_max":0,"o":"m 632 804 l 632 300 b 474 325 632 300 560 325 l 218 325 l 610 804 z m 935 325 l 818 325 l 818 972 l 532 972 l 39 378 l 39 174 l 632 174 l 632 0 l 818 0 l 818 174 l 935 174 z "},"5":{"ha":903,"x_min":0,"x_max":0,"o":"m 853 338 b 461 -17 853 175 739 -17 b 67 328 185 -17 71 168 l 256 328 b 460 151 264 250 318 151 b 667 353 607 151 667 260 b 460 558 667 449 607 558 b 294 482 363 558 317 511 l 74 482 l 151 972 l 778 972 l 778 804 l 301 804 l 294 742 b 244 594 285 653 244 594 l 269 594 b 493 694 301 654 363 694 b 853 338 739 694 853 518 z "},"6":{"ha":953,"x_min":0,"x_max":0,"o":"m 478 151 b 244 336 313 151 244 253 b 478 524 244 424 313 524 b 710 336 643 524 710 424 b 478 151 710 253 643 151 z m 510 694 b 219 478 322 694 225 553 l 194 478 b 463 821 188 708 326 821 b 697 701 596 821 675 765 l 875 701 b 478 989 843 838 704 989 b 51 486 168 989 51 715 b 501 -17 51 160 233 -17 b 896 339 768 -17 896 161 b 510 694 896 517 776 694 z "},"7":{"ha":785,"x_min":0,"x_max":0,"o":"m 31 972 l 760 972 l 760 826 b 428 0 451 613 428 242 l 242 0 b 525 804 242 213 296 618 l 525 829 b 344 804 525 829 433 804 l 31 804 z "},"8":{"ha":906,"x_min":0,"x_max":0,"o":"m 454 151 b 238 300 360 151 238 193 b 454 449 238 408 360 449 b 668 300 547 449 668 408 b 454 151 668 193 547 151 z m 276 711 b 453 821 276 790 371 821 b 628 711 535 821 628 790 b 453 603 628 633 535 603 b 276 711 371 603 276 633 z m 614 513 l 614 538 b 811 751 714 564 811 640 b 453 989 811 872 690 989 b 94 751 215 989 94 872 b 292 538 94 640 192 564 l 292 513 b 51 257 171 486 51 389 b 453 -17 51 115 186 -17 b 854 257 719 -17 854 115 b 614 513 854 389 735 486 z "},"9":{"ha":953,"x_min":0,"x_max":0,"o":"m 475 821 b 708 636 640 821 708 719 b 475 449 708 549 640 449 b 243 636 308 449 243 549 b 475 821 243 719 308 821 z m 442 278 b 733 494 629 278 728 419 l 758 494 b 490 151 764 264 625 151 b 254 271 356 151 278 207 l 78 271 b 475 -17 108 135 249 -17 b 901 486 785 -17 901 257 b 451 989 901 813 718 989 b 57 633 185 989 57 811 b 442 278 57 456 175 278 z "}," ":{"ha":372,"x_min":0,"x_max":0,"o":""}," ":{"ha":372,"x_min":0,"x_max":0,"o":""},"A":{"ha":950,"x_min":0,"x_max":0,"o":"m 589 972 l 361 972 l 14 0 l 181 0 l 251 203 l 700 203 l 769 0 l 936 0 z m 306 354 l 463 804 l 488 804 l 646 354 z "},"Á":{"ha":950,"x_min":0,"x_max":0,"o":"m 589 972 l 361 972 l 14 0 l 181 0 l 251 203 l 700 203 l 769 0 l 936 0 z m 306 354 l 463 804 l 488 804 l 646 354 z m 671 1261 l 501 1261 l 403 1043 l 558 1043 z "},"Â":{"ha":950,"x_min":0,"x_max":0,"o":"m 589 972 l 361 972 l 14 0 l 181 0 l 251 203 l 700 203 l 769 0 l 936 0 z m 306 354 l 463 804 l 488 804 l 646 354 z m 576 1261 l 372 1261 l 244 1076 l 401 1076 l 471 1175 l 478 1175 l 547 1076 l 704 1076 z "},"Ä":{"ha":950,"x_min":0,"x_max":0,"o":"m 589 972 l 361 972 l 14 0 l 181 0 l 251 203 l 700 203 l 769 0 l 936 0 z m 306 354 l 463 804 l 488 804 l 646 354 z m 338 1083 b 428 1174 383 1083 428 1124 b 338 1264 428 1224 383 1264 b 243 1174 286 1264 243 1224 b 338 1083 243 1124 286 1083 z m 615 1083 b 706 1174 663 1083 706 1124 b 615 1264 706 1224 663 1264 b 522 1174 565 1264 522 1224 b 615 1083 522 1124 565 1083 z "},"Å":{"ha":950,"x_min":0,"x_max":0,"o":"m 589 972 l 361 972 l 14 0 l 181 0 l 251 203 l 700 203 l 769 0 l 936 0 z m 306 354 l 463 804 l 488 804 l 646 354 z m 481 1185 b 410 1258 429 1185 410 1224 b 481 1332 410 1293 429 1332 b 553 1258 533 1332 553 1293 b 481 1185 553 1224 533 1185 z m 481 1444 b 290 1258 342 1444 290 1346 b 481 1072 290 1171 342 1072 b 672 1258 621 1072 672 1171 b 481 1444 672 1346 621 1444 z "},"B":{"ha":919,"x_min":0,"x_max":0,"o":"m 511 168 l 292 168 l 292 424 l 511 424 b 686 296 618 424 686 385 b 511 168 686 206 618 168 z m 506 592 l 292 592 l 292 804 l 506 804 b 640 697 589 804 640 767 b 506 592 640 626 589 592 z m 874 249 b 597 497 874 422 718 489 l 597 522 b 813 731 701 533 813 589 b 494 972 813 893 658 972 l 106 972 l 106 0 l 499 0 b 874 249 688 0 874 63 z "},"C":{"ha":1013,"x_min":0,"x_max":0,"o":"m 765 296 l 968 296 b 525 -17 943 217 839 -17 b 51 486 189 -17 51 254 b 525 989 51 718 189 989 b 968 676 839 989 943 756 l 765 676 b 525 821 738 735 665 821 b 238 488 319 821 238 640 b 524 151 238 332 319 151 b 765 296 665 151 738 239 z "},"Č":{"ha":1013,"x_min":0,"x_max":0,"o":"m 765 296 l 968 296 b 525 -17 943 217 839 -17 b 51 486 189 -17 51 254 b 525 989 51 718 189 989 b 968 676 839 989 943 756 l 765 676 b 525 821 738 735 665 821 b 238 488 319 821 238 640 b 524 151 238 332 319 151 b 765 296 665 151 738 239 z m 424 1079 l 628 1079 l 756 1264 l 599 1264 l 529 1164 l 522 1164 l 453 1264 l 296 1264 z "},"D":{"ha":997,"x_min":0,"x_max":0,"o":"m 444 174 l 292 174 l 292 804 l 444 804 b 760 486 643 804 760 674 b 444 174 760 299 643 174 z m 946 486 b 449 972 946 799 738 972 l 106 972 l 106 0 l 449 0 b 946 486 746 0 946 175 z "},"Ď":{"ha":997,"x_min":0,"x_max":0,"o":"m 444 174 l 292 174 l 292 804 l 444 804 b 760 486 643 804 760 674 b 444 174 760 299 643 174 z m 946 486 b 449 972 946 799 738 972 l 106 972 l 106 0 l 449 0 b 946 486 746 0 946 175 z m 339 1079 l 543 1079 l 671 1264 l 514 1264 l 444 1164 l 438 1164 l 368 1264 l 211 1264 z "},"E":{"ha":797,"x_min":0,"x_max":0,"o":"m 728 972 l 106 972 l 106 0 l 728 0 l 728 168 l 292 168 l 292 414 l 682 414 l 682 578 l 292 578 l 292 804 l 728 804 z "},"É":{"ha":797,"x_min":0,"x_max":0,"o":"m 728 972 l 106 972 l 106 0 l 728 0 l 728 168 l 292 168 l 292 414 l 682 414 l 682 578 l 292 578 l 292 804 l 728 804 z m 597 1264 l 428 1264 l 329 1046 l 485 1046 z "},"Ĕ":{"ha":797,"x_min":0,"x_max":0,"o":"m 728 972 l 106 972 l 106 0 l 728 0 l 728 168 l 292 168 l 292 414 l 682 414 l 682 578 l 292 578 l 292 804 l 728 804 z m 613 1264 l 488 1264 b 415 1190 488 1231 468 1190 b 344 1264 365 1190 344 1231 l 219 1264 b 415 1071 219 1174 274 1071 b 613 1264 560 1071 613 1174 z "},"Ě":{"ha":797,"x_min":0,"x_max":0,"o":"m 728 972 l 106 972 l 106 0 l 728 0 l 728 168 l 292 168 l 292 414 l 682 414 l 682 578 l 292 578 l 292 804 l 728 804 z m 314 1079 l 518 1079 l 646 1264 l 489 1264 l 419 1164 l 413 1164 l 343 1264 l 186 1264 z "},"Ê":{"ha":797,"x_min":0,"x_max":0,"o":"m 728 972 l 106 972 l 106 0 l 728 0 l 728 168 l 292 168 l 292 414 l 682 414 l 682 578 l 292 578 l 292 804 l 728 804 z m 519 1264 l 315 1264 l 188 1079 l 344 1079 l 414 1178 l 421 1178 l 490 1079 l 647 1079 z "},"Ë":{"ha":797,"x_min":0,"x_max":0,"o":"m 728 972 l 106 972 l 106 0 l 728 0 l 728 168 l 292 168 l 292 414 l 682 414 l 682 578 l 292 578 l 292 804 l 728 804 z m 289 1083 b 379 1174 335 1083 379 1124 b 289 1264 379 1224 335 1264 b 194 1174 238 1264 194 1224 b 289 1083 194 1124 238 1083 z m 567 1083 b 657 1174 614 1083 657 1124 b 567 1264 657 1224 614 1264 b 474 1174 517 1264 474 1224 b 567 1083 474 1124 517 1083 z "},"F":{"ha":750,"x_min":0,"x_max":0,"o":"m 710 804 l 710 972 l 106 972 l 106 0 l 292 0 l 292 414 l 632 414 l 632 578 l 292 578 l 292 804 z "},"G":{"ha":1043,"x_min":0,"x_max":0,"o":"m 974 485 l 974 0 l 804 0 l 804 38 b 874 318 804 125 857 271 l 849 318 b 461 -17 838 247 767 -17 b 51 485 289 -17 51 111 b 528 989 51 731 183 989 b 971 676 847 989 947 749 l 771 676 b 526 821 750 721 678 821 b 238 488 321 821 238 640 b 525 151 238 332 319 153 b 776 376 678 153 776 272 b 743 410 776 394 761 410 l 510 410 l 510 578 l 881 578 b 974 485 933 578 974 538 z "},"H":{"ha":1004,"x_min":0,"x_max":0,"o":"m 899 972 l 713 972 l 713 581 l 292 582 l 292 972 l 106 972 l 106 0 l 292 0 l 292 413 l 713 413 l 713 0 l 899 0 z "},"I":{"ha":397,"x_min":0,"x_max":0,"o":"m 106 972 l 106 0 l 292 0 l 292 972 z "},"Í":{"ha":397,"x_min":0,"x_max":0,"o":"m 106 972 l 106 0 l 292 0 l 292 972 z m 389 1261 l 219 1261 l 121 1043 l 276 1043 z "},"Ĭ":{"ha":397,"x_min":0,"x_max":0,"o":"m 106 972 l 106 0 l 292 0 l 292 972 z m 394 1261 l 269 1261 b 197 1188 269 1228 250 1188 b 126 1261 147 1188 126 1228 l 1 1261 b 197 1068 1 1171 56 1068 b 394 1261 342 1068 394 1171 z "},"Î":{"ha":397,"x_min":0,"x_max":0,"o":"m 106 972 l 106 0 l 292 0 l 292 972 z m 300 1261 l 96 1261 l -32 1076 l 125 1076 l 194 1175 l 201 1175 l 271 1076 l 428 1076 z "},"Ï":{"ha":397,"x_min":0,"x_max":0,"o":"m 106 972 l 106 0 l 292 0 l 292 972 z m 61 1081 b 151 1171 107 1081 151 1121 b 61 1261 151 1221 107 1261 b -33 1171 10 1261 -33 1221 b 61 1081 -33 1121 10 1081 z m 339 1081 b 429 1171 386 1081 429 1121 b 339 1261 429 1221 386 1261 b 246 1171 289 1261 246 1221 b 339 1081 246 1121 289 1081 z "},"İ":{"ha":397,"x_min":0,"x_max":0,"o":"m 106 972 l 106 0 l 292 0 l 292 972 z m 201 1081 b 292 1171 247 1081 292 1121 b 201 1261 292 1221 247 1261 b 107 1171 150 1261 107 1221 b 201 1081 107 1121 150 1081 z "},"Ì":{"ha":397,"x_min":0,"x_max":0,"o":"m 106 972 l 106 0 l 292 0 l 292 972 z m 7 1261 l 119 1043 l 275 1043 l 178 1261 z "},"J":{"ha":554,"x_min":0,"x_max":0,"o":"m 85 972 l 453 972 l 453 311 b 150 0 453 139 318 0 b 17 0 24 0 46 0 l 17 168 b 149 168 74 168 110 168 b 267 289 214 168 267 222 l 267 804 l 85 804 z "},"K":{"ha":969,"x_min":0,"x_max":0,"o":"m 953 972 l 700 972 l 321 564 l 292 564 l 292 972 l 106 972 l 106 0 l 292 0 l 292 396 l 321 396 l 689 0 l 942 0 l 504 467 l 504 492 z "},"L":{"ha":758,"x_min":0,"x_max":0,"o":"m 292 972 l 106 972 l 106 0 l 731 0 l 731 168 l 292 168 z "},"Ĺ":{"ha":758,"x_min":0,"x_max":0,"o":"m 292 972 l 106 972 l 106 0 l 731 0 l 731 168 l 292 168 z m 388 1261 l 218 1261 l 119 1043 l 275 1043 z "},"Ľ":{"ha":758,"x_min":0,"x_max":0,"o":"m 292 972 l 106 972 l 106 0 l 731 0 l 731 168 l 292 168 z m 594 972 l 408 972 l 426 585 l 576 585 z "},"Ł":{"ha":786,"x_min":0,"x_max":0,"o":"m 319 972 l 133 972 l 133 0 l 758 0 l 758 168 l 319 168 z m 42 431 l 42 289 l 464 507 l 464 649 z "},"M":{"ha":1365,"x_min":0,"x_max":0,"o":"m 951 972 l 1260 972 l 1260 0 l 1074 0 l 1074 646 b 1086 804 1074 725 1086 804 l 1061 804 l 804 0 l 561 0 l 304 804 l 279 804 b 292 646 279 804 292 725 l 292 0 l 106 0 l 106 972 l 414 972 l 669 168 l 694 168 z "},"N":{"ha":1114,"x_min":0,"x_max":0,"o":"m 822 354 l 822 972 l 1008 972 l 1008 0 l 721 0 l 306 804 l 281 804 b 292 624 281 804 292 722 l 292 0 l 106 0 l 106 972 l 393 972 l 810 168 l 833 168 b 822 354 833 168 822 253 z "},"Ň":{"ha":1114,"x_min":0,"x_max":0,"o":"m 822 354 l 822 972 l 1008 972 l 1008 0 l 721 0 l 306 804 l 281 804 b 292 624 281 804 292 722 l 292 0 l 106 0 l 106 972 l 393 972 l 810 168 l 833 168 b 822 354 833 168 822 253 z m 451 1079 l 656 1079 l 783 1264 l 626 1264 l 557 1164 l 550 1164 l 481 1264 l 324 1264 z "},"O":{"ha":1046,"x_min":0,"x_max":0,"o":"m 522 151 b 238 488 319 151 238 332 b 522 821 238 640 319 821 b 808 488 725 821 808 640 b 522 151 808 332 725 151 z m 524 989 b 51 485 189 989 51 718 b 524 -17 51 254 189 -17 b 994 485 858 -17 994 254 b 524 989 994 718 858 989 z "},"Ó":{"ha":1046,"x_min":0,"x_max":0,"o":"m 522 151 b 238 488 319 151 238 332 b 522 821 238 640 319 821 b 808 488 725 821 808 640 b 522 151 808 332 725 151 z m 524 989 b 51 485 189 989 51 718 b 524 -17 51 254 189 -17 b 994 485 858 -17 994 254 b 524 989 994 718 858 989 z m 710 1264 l 540 1264 l 442 1046 l 597 1046 z "},"Ô":{"ha":1046,"x_min":0,"x_max":0,"o":"m 522 151 b 238 488 319 151 238 332 b 522 821 238 640 319 821 b 808 488 725 821 808 640 b 522 151 808 332 725 151 z m 524 989 b 51 485 189 989 51 718 b 524 -17 51 254 189 -17 b 994 485 858 -17 994 254 b 524 989 994 718 858 989 z m 626 1264 l 422 1264 l 294 1079 l 451 1079 l 521 1178 l 528 1178 l 597 1079 l 754 1079 z "},"Ö":{"ha":1046,"x_min":0,"x_max":0,"o":"m 522 151 b 238 488 319 151 238 332 b 522 821 238 640 319 821 b 808 488 725 821 808 640 b 522 151 808 332 725 151 z m 524 989 b 51 485 189 989 51 718 b 524 -17 51 254 189 -17 b 994 485 858 -17 994 254 b 524 989 994 718 858 989 z m 385 1083 b 475 1174 431 1083 475 1124 b 385 1264 475 1224 431 1264 b 290 1174 333 1264 290 1224 b 385 1083 290 1124 333 1083 z m 663 1083 b 753 1174 710 1083 753 1124 b 663 1264 753 1224 710 1264 b 569 1174 613 1264 569 1224 b 663 1083 569 1124 613 1083 z "},"Ő":{"ha":1046,"x_min":0,"x_max":0,"o":"m 522 151 b 238 488 319 151 238 332 b 522 821 238 640 319 821 b 808 488 725 821 808 640 b 522 151 808 332 725 151 z m 524 989 b 51 485 189 989 51 718 b 524 -17 51 254 189 -17 b 994 485 858 -17 994 254 b 524 989 994 718 858 989 z m 825 1264 l 656 1264 l 557 1046 l 713 1046 z m 599 1264 l 429 1264 l 331 1046 l 486 1046 z "},"Ø":{"ha":1063,"x_min":0,"x_max":0,"o":"m 532 151 b 247 488 329 151 247 332 b 532 821 247 640 329 821 b 818 488 735 821 818 640 b 532 151 818 332 735 151 z m 533 989 b 61 485 199 989 61 718 b 533 -17 61 254 199 -17 b 1004 485 868 -17 1004 254 b 533 989 1004 718 868 989 z m 1006 986 l 810 986 l 57 -14 l 254 -14 z "},"Ǿ":{"ha":1063,"x_min":0,"x_max":0,"o":"m 532 151 b 247 488 329 151 247 332 b 532 821 247 640 329 821 b 818 488 735 821 818 640 b 532 151 818 332 735 151 z m 533 989 b 61 485 199 989 61 718 b 533 -17 61 254 199 -17 b 1004 485 868 -17 1004 254 b 533 989 1004 718 868 989 z m 1006 986 l 810 986 l 57 -14 l 254 -14 z m 728 1264 l 558 1264 l 460 1046 l 615 1046 z "},"P":{"ha":893,"x_min":0,"x_max":0,"o":"m 554 578 l 292 578 l 292 804 l 554 804 b 672 690 626 804 672 754 b 554 578 672 628 626 578 z m 576 972 l 106 972 l 106 0 l 292 0 l 292 408 l 576 408 b 858 690 754 408 858 542 b 576 972 858 839 754 972 z "},"Q":{"ha":1056,"x_min":0,"x_max":0,"o":"m 235 496 b 514 822 235 646 314 822 b 794 496 714 822 794 646 b 514 167 794 343 707 167 b 235 496 314 167 235 343 z m 726 132 l 726 158 b 978 493 849 189 978 276 b 515 989 978 722 844 989 b 51 493 186 989 51 722 b 515 0 51 267 186 0 l 975 0 l 975 168 l 913 168 b 726 132 824 168 726 132 z "},"R":{"ha":926,"x_min":0,"x_max":0,"o":"m 554 578 l 292 578 l 292 804 l 554 804 b 672 690 626 804 672 754 b 554 578 672 628 626 578 z m 672 486 l 672 511 b 858 732 697 515 858 572 b 576 972 858 865 774 972 l 106 972 l 106 0 l 289 0 l 289 408 l 572 408 b 665 315 622 408 665 367 b 665 0 665 215 665 0 l 835 0 b 835 324 835 0 835 219 b 672 486 835 413 760 486 z "},"Ř":{"ha":926,"x_min":0,"x_max":0,"o":"m 554 578 l 292 578 l 292 804 l 554 804 b 672 690 626 804 672 754 b 554 578 672 628 626 578 z m 672 486 l 672 511 b 858 732 697 515 858 572 b 576 972 858 865 774 972 l 106 972 l 106 0 l 289 0 l 289 408 l 572 408 b 665 315 622 408 665 367 b 665 0 665 215 665 0 l 835 0 b 835 324 835 0 835 219 b 672 486 835 413 760 486 z m 335 1079 l 539 1079 l 667 1264 l 510 1264 l 440 1164 l 433 1164 l 364 1264 l 207 1264 z "},"S":{"ha":854,"x_min":0,"x_max":0,"o":"m 797 289 b 422 -17 797 149 689 -17 b 49 292 157 -17 49 151 l 235 292 b 424 151 235 228 289 151 b 611 289 557 151 611 225 b 385 408 611 376 468 393 b 54 697 243 435 54 489 b 424 989 54 832 160 989 b 794 697 688 989 794 832 b 794 690 794 696 794 694 l 608 690 b 608 697 608 694 608 696 b 424 821 608 753 557 821 b 240 697 293 821 240 753 b 421 574 240 625 306 592 b 797 289 599 547 797 497 z "},"Š":{"ha":854,"x_min":0,"x_max":0,"o":"m 797 289 b 422 -17 797 149 689 -17 b 49 292 157 -17 49 151 l 235 292 b 424 151 235 228 289 151 b 611 289 557 151 611 225 b 385 408 611 376 468 393 b 54 697 243 435 54 489 b 424 989 54 832 160 989 b 794 697 688 989 794 832 b 794 690 794 696 794 694 l 608 690 b 608 697 608 694 608 696 b 424 821 608 753 557 821 b 240 697 293 821 240 753 b 421 574 240 625 306 592 b 797 289 599 547 797 497 z m 310 1079 l 514 1079 l 642 1264 l 485 1264 l 415 1164 l 408 1164 l 339 1264 l 182 1264 z "},"T":{"ha":794,"x_min":0,"x_max":0,"o":"m 769 972 l 25 972 l 25 804 l 304 804 l 304 0 l 490 0 l 490 804 l 769 804 z "},"Ť":{"ha":794,"x_min":0,"x_max":0,"o":"m 769 972 l 25 972 l 25 804 l 304 804 l 304 0 l 490 0 l 490 804 l 769 804 z m 294 1076 l 499 1076 l 626 1261 l 469 1261 l 400 1161 l 393 1161 l 324 1261 l 167 1261 z "},"U":{"ha":996,"x_min":0,"x_max":0,"o":"m 717 413 l 717 972 l 903 972 l 903 411 b 499 -17 903 221 790 -17 b 93 411 207 -17 93 221 l 93 972 l 279 972 l 279 413 b 499 151 279 293 343 151 b 717 413 654 151 717 293 z "},"Ú":{"ha":996,"x_min":0,"x_max":0,"o":"m 717 413 l 717 972 l 903 972 l 903 411 b 499 -17 903 221 790 -17 b 93 411 207 -17 93 221 l 93 972 l 279 972 l 279 413 b 499 151 279 293 343 151 b 717 413 654 151 717 293 z m 682 1264 l 513 1264 l 414 1046 l 569 1046 z "},"Ü":{"ha":996,"x_min":0,"x_max":0,"o":"m 717 413 l 717 972 l 903 972 l 903 411 b 499 -17 903 221 790 -17 b 93 411 207 -17 93 221 l 93 972 l 279 972 l 279 413 b 499 151 279 293 343 151 b 717 413 654 151 717 293 z m 375 1083 b 465 1174 421 1083 465 1124 b 375 1264 465 1224 421 1264 b 281 1174 324 1264 281 1224 b 375 1083 281 1124 324 1083 z m 653 1083 b 743 1174 700 1083 743 1124 b 653 1264 743 1224 700 1264 b 560 1174 603 1264 560 1224 b 653 1083 560 1124 603 1083 z "},"Ű":{"ha":996,"x_min":0,"x_max":0,"o":"m 717 413 l 717 972 l 903 972 l 903 411 b 499 -17 903 221 790 -17 b 93 411 207 -17 93 221 l 93 972 l 279 972 l 279 413 b 499 151 279 293 343 151 b 717 413 654 151 717 293 z m 801 1264 l 632 1264 l 533 1046 l 689 1046 z m 575 1264 l 406 1264 l 307 1046 l 463 1046 z "},"Ů":{"ha":996,"x_min":0,"x_max":0,"o":"m 717 413 l 717 972 l 903 972 l 903 411 b 499 -17 903 221 790 -17 b 93 411 207 -17 93 221 l 93 972 l 279 972 l 279 413 b 499 151 279 293 343 151 b 717 413 654 151 717 293 z m 496 1153 b 425 1226 444 1153 425 1192 b 496 1300 425 1261 444 1300 b 568 1226 549 1300 568 1261 b 496 1153 568 1192 549 1153 z m 496 1413 b 306 1226 357 1413 306 1314 b 496 1040 306 1139 357 1040 b 688 1226 636 1040 688 1139 b 496 1413 688 1314 636 1413 z "},"V":{"ha":961,"x_min":0,"x_max":0,"o":"m 751 972 l 947 972 l 626 0 l 335 0 l 14 972 l 210 972 l 450 251 b 468 168 463 210 468 168 l 493 168 b 511 251 493 168 499 210 b 751 972 521 278 751 972 z "},"W":{"ha":1567,"x_min":0,"x_max":0,"o":"m 1363 972 l 1546 972 l 1299 0 l 1006 0 b 811 722 1006 0 811 722 b 794 804 801 758 794 804 l 769 804 b 754 722 769 804 764 757 l 560 0 l 268 0 l 21 972 l 204 972 b 410 240 204 972 410 240 b 425 168 418 208 425 168 l 450 168 b 465 240 450 168 457 208 l 663 972 l 901 972 b 1100 239 901 972 1100 239 b 1117 168 1108 208 1117 168 l 1142 168 b 1157 239 1142 168 1149 208 b 1363 972 1164 264 1363 972 z "},"X":{"ha":1075,"x_min":0,"x_max":0,"o":"m 1053 972 l 825 972 l 536 565 l 249 972 l 21 972 l 363 490 l 19 0 l 246 0 l 525 397 l 549 397 l 828 0 l 1056 0 l 710 490 z "},"Y":{"ha":881,"x_min":0,"x_max":0,"o":"m 479 638 l 676 972 l 867 972 l 533 403 l 533 0 l 347 0 l 347 404 l 14 972 l 204 972 l 400 638 b 428 572 419 604 428 572 l 453 572 b 479 638 453 572 460 604 z "},"Ý":{"ha":881,"x_min":0,"x_max":0,"o":"m 479 638 l 676 972 l 867 972 l 533 403 l 533 0 l 347 0 l 347 404 l 14 972 l 204 972 l 400 638 b 428 572 419 604 428 572 l 453 572 b 479 638 453 572 460 604 z m 640 1264 l 471 1264 l 372 1046 l 528 1046 z "},"Ÿ":{"ha":881,"x_min":0,"x_max":0,"o":"m 479 638 l 676 972 l 867 972 l 533 403 l 533 0 l 347 0 l 347 404 l 14 972 l 204 972 l 400 638 b 428 572 419 604 428 572 l 453 572 b 479 638 453 572 460 604 z m 301 1083 b 392 1174 347 1083 392 1124 b 301 1264 392 1224 347 1264 b 207 1174 250 1264 207 1224 b 301 1083 207 1124 250 1083 z m 579 1083 b 669 1174 626 1083 669 1124 b 579 1264 669 1224 626 1264 b 486 1174 529 1264 486 1224 b 579 1083 486 1124 529 1083 z "},"Z":{"ha":865,"x_min":0,"x_max":0,"o":"m 275 189 l 275 168 l 819 168 l 819 0 l 40 0 l 40 136 l 479 700 b 571 782 533 768 571 782 l 571 804 l 68 804 l 68 972 l 804 972 l 804 836 l 378 286 b 275 189 319 213 275 189 z "},"Ž":{"ha":865,"x_min":0,"x_max":0,"o":"m 275 189 l 275 168 l 819 168 l 819 0 l 40 0 l 40 136 l 479 700 b 571 782 533 768 571 782 l 571 804 l 68 804 l 68 972 l 804 972 l 804 836 l 378 286 b 275 189 319 213 275 189 z m 328 1079 l 532 1079 l 660 1264 l 503 1264 l 433 1164 l 426 1164 l 357 1264 l 200 1264 z "},"a":{"ha":847,"x_min":0,"x_max":0,"o":"m 543 346 l 543 307 b 540 261 543 292 543 278 b 451 147 535 221 503 175 b 318 125 400 121 367 119 b 229 213 271 133 229 165 b 331 306 229 265 285 297 b 543 346 460 324 522 335 z m 819 168 l 763 168 b 729 200 743 168 729 182 l 729 432 b 394 694 729 560 629 694 b 57 436 158 694 57 560 l 238 436 b 392 543 238 489 286 543 b 533 471 464 543 521 515 b 439 406 549 419 490 415 b 214 374 376 394 306 394 b 51 182 131 354 51 303 b 235 -14 51 69 140 -4 b 482 39 319 -24 406 -10 b 597 193 565 92 597 193 l 622 193 b 597 90 622 193 597 149 b 686 -1 597 39 626 -1 l 819 -1 z "},"á":{"ha":847,"x_min":0,"x_max":0,"o":"m 543 346 l 543 307 b 540 261 543 292 543 278 b 451 147 535 221 503 175 b 318 125 400 121 367 119 b 229 213 271 133 229 165 b 331 306 229 265 285 297 b 543 346 460 324 522 335 z m 819 168 l 763 168 b 729 200 743 168 729 182 l 729 432 b 394 694 729 560 629 694 b 57 436 158 694 57 560 l 238 436 b 392 543 238 489 286 543 b 533 471 464 543 521 515 b 439 406 549 419 490 415 b 214 374 376 394 306 394 b 51 182 131 354 51 303 b 235 -14 51 69 140 -4 b 482 39 319 -24 406 -10 b 597 193 565 92 597 193 l 622 193 b 597 90 622 193 597 149 b 686 -1 597 39 626 -1 l 819 -1 z m 593 1017 l 424 1017 l 325 799 l 481 799 z "},"â":{"ha":847,"x_min":0,"x_max":0,"o":"m 543 346 l 543 307 b 540 261 543 292 543 278 b 451 147 535 221 503 175 b 318 125 400 121 367 119 b 229 213 271 133 229 165 b 331 306 229 265 285 297 b 543 346 460 324 522 335 z m 819 168 l 763 168 b 729 200 743 168 729 182 l 729 432 b 394 694 729 560 629 694 b 57 436 158 694 57 560 l 238 436 b 392 543 238 489 286 543 b 533 471 464 543 521 515 b 439 406 549 419 490 415 b 214 374 376 394 306 394 b 51 182 131 354 51 303 b 235 -14 51 69 140 -4 b 482 39 319 -24 406 -10 b 597 193 565 92 597 193 l 622 193 b 597 90 622 193 597 149 b 686 -1 597 39 626 -1 l 819 -1 z m 517 1017 l 313 1017 l 185 832 l 342 832 l 411 931 l 418 931 l 488 832 l 644 832 z "},"ä":{"ha":847,"x_min":0,"x_max":0,"o":"m 543 346 l 543 307 b 540 261 543 292 543 278 b 451 147 535 221 503 175 b 318 125 400 121 367 119 b 229 213 271 133 229 165 b 331 306 229 265 285 297 b 543 346 460 324 522 335 z m 819 168 l 763 168 b 729 200 743 168 729 182 l 729 432 b 394 694 729 560 629 694 b 57 436 158 694 57 560 l 238 436 b 392 543 238 489 286 543 b 533 471 464 543 521 515 b 439 406 549 419 490 415 b 214 374 376 394 306 394 b 51 182 131 354 51 303 b 235 -14 51 69 140 -4 b 482 39 319 -24 406 -10 b 597 193 565 92 597 193 l 622 193 b 597 90 622 193 597 149 b 686 -1 597 39 626 -1 l 819 -1 z m 281 836 b 371 926 326 836 371 876 b 281 1017 371 976 326 1017 b 186 926 229 1017 186 976 b 281 836 186 876 229 836 z m 558 836 b 649 926 606 836 649 876 b 558 1017 649 976 606 1017 b 465 926 508 1017 465 976 b 558 836 465 876 508 836 z "},"å":{"ha":847,"x_min":0,"x_max":0,"o":"m 543 346 l 543 307 b 540 261 543 292 543 278 b 451 147 535 221 503 175 b 318 125 400 121 367 119 b 229 213 271 133 229 165 b 331 306 229 265 285 297 b 543 346 460 324 522 335 z m 819 168 l 763 168 b 729 200 743 168 729 182 l 729 432 b 394 694 729 560 629 694 b 57 436 158 694 57 560 l 238 436 b 392 543 238 489 286 543 b 533 471 464 543 521 515 b 439 406 549 419 490 415 b 214 374 376 394 306 394 b 51 182 131 354 51 303 b 235 -14 51 69 140 -4 b 482 39 319 -24 406 -10 b 597 193 565 92 597 193 l 622 193 b 597 90 622 193 597 149 b 686 -1 597 39 626 -1 l 819 -1 z m 399 940 b 328 1014 347 940 328 979 b 399 1088 328 1049 347 1088 b 471 1014 451 1088 471 1049 b 399 940 471 979 451 940 z m 399 1200 b 208 1014 260 1200 208 1101 b 399 828 208 926 260 828 b 590 1014 539 828 590 926 b 399 1200 590 1101 539 1200 z "},"b":{"ha":844,"x_min":0,"x_max":0,"o":"m 435 151 b 256 339 335 151 256 225 b 435 526 256 453 336 526 b 614 339 533 526 614 453 b 435 151 614 225 535 151 z m 488 694 b 256 561 349 694 286 618 l 231 561 b 256 726 231 561 256 633 l 256 972 l 69 972 l 69 0 l 256 0 l 256 7 b 231 115 256 60 231 115 l 256 115 b 493 -17 286 58 349 -17 b 800 339 706 -17 800 171 b 488 694 800 507 706 694 z "},"c":{"ha":754,"x_min":0,"x_max":0,"o":"m 518 231 l 717 231 b 388 -17 685 108 589 -17 b 44 339 138 -17 44 175 b 388 694 44 503 138 694 b 717 446 589 694 685 567 l 519 446 b 388 526 504 479 464 526 b 231 339 274 526 231 425 b 388 151 231 253 274 151 b 518 231 464 151 503 197 z "},"č":{"ha":754,"x_min":0,"x_max":0,"o":"m 518 231 l 717 231 b 388 -17 685 108 589 -17 b 44 339 138 -17 44 175 b 388 694 44 503 138 694 b 717 446 589 694 685 567 l 519 446 b 388 526 504 479 464 526 b 231 339 274 526 231 425 b 388 151 231 253 274 151 b 518 231 464 151 503 197 z m 283 832 l 488 832 l 615 1017 l 458 1017 l 389 917 l 382 917 l 313 1017 l 156 1017 z "},"d":{"ha":839,"x_min":0,"x_max":0,"o":"m 231 339 b 407 526 231 454 308 526 b 583 339 506 526 583 454 b 407 151 583 224 507 151 b 231 339 308 151 231 224 z m 44 339 b 346 -17 44 171 133 -17 b 583 115 490 -17 553 58 l 608 115 b 583 7 608 115 583 60 l 583 0 l 769 0 l 769 972 l 583 972 l 583 726 b 608 561 583 633 608 561 l 583 561 b 351 694 553 618 490 694 b 44 339 133 694 44 507 z "},"ď":{"ha":981,"x_min":0,"x_max":0,"o":"m 231 339 b 407 526 231 454 308 526 b 583 339 506 526 583 454 b 407 151 583 224 507 151 b 231 339 308 151 231 224 z m 44 339 b 346 -17 44 171 133 -17 b 583 115 490 -17 553 58 l 608 115 b 583 7 608 115 583 60 l 583 0 l 769 0 l 769 972 l 583 972 l 583 726 b 608 561 583 633 608 561 l 583 561 b 351 694 553 618 490 694 b 44 339 133 694 44 507 z m 1019 972 l 833 972 l 851 585 l 1001 585 z "},"e":{"ha":774,"x_min":0,"x_max":0,"o":"m 388 543 b 551 404 493 543 540 463 l 224 406 b 388 543 236 465 283 543 z m 218 297 l 728 297 b 388 694 743 507 635 694 b 44 339 138 694 44 503 b 388 -17 44 175 139 -17 b 715 228 624 -17 697 151 l 535 228 b 388 135 515 183 472 135 b 218 297 263 135 224 240 z "},"é":{"ha":774,"x_min":0,"x_max":0,"o":"m 388 543 b 551 404 493 543 540 463 l 224 406 b 388 543 236 465 283 543 z m 218 297 l 728 297 b 388 694 743 507 635 694 b 44 339 138 694 44 503 b 388 -17 44 175 139 -17 b 715 228 624 -17 697 151 l 535 228 b 388 135 515 183 472 135 b 218 297 263 135 224 240 z m 583 1017 l 414 1017 l 315 799 l 471 799 z "},"ě":{"ha":774,"x_min":0,"x_max":0,"o":"m 388 543 b 551 404 493 543 540 463 l 224 406 b 388 543 236 465 283 543 z m 218 297 l 728 297 b 388 694 743 507 635 694 b 44 339 138 694 44 503 b 388 -17 44 175 139 -17 b 715 228 624 -17 697 151 l 535 228 b 388 135 515 183 472 135 b 218 297 263 135 224 240 z m 282 832 l 486 832 l 614 1017 l 457 1017 l 388 917 l 381 917 l 311 1017 l 154 1017 z "},"ê":{"ha":774,"x_min":0,"x_max":0,"o":"m 388 543 b 551 404 493 543 540 463 l 224 406 b 388 543 236 465 283 543 z m 218 297 l 728 297 b 388 694 743 507 635 694 b 44 339 138 694 44 503 b 388 -17 44 175 139 -17 b 715 228 624 -17 697 151 l 535 228 b 388 135 515 183 472 135 b 218 297 263 135 224 240 z m 489 1017 l 285 1017 l 157 832 l 314 832 l 383 931 l 390 931 l 460 832 l 617 832 z "},"ë":{"ha":774,"x_min":0,"x_max":0,"o":"m 388 543 b 551 404 493 543 540 463 l 224 406 b 388 543 236 465 283 543 z m 218 297 l 728 297 b 388 694 743 507 635 694 b 44 339 138 694 44 503 b 388 -17 44 175 139 -17 b 715 228 624 -17 697 151 l 535 228 b 388 135 515 183 472 135 b 218 297 263 135 224 240 z m 246 838 b 336 928 292 838 336 878 b 246 1018 336 978 292 1018 b 151 928 194 1018 151 978 b 246 838 151 878 194 838 z m 524 838 b 614 928 571 838 614 878 b 524 1018 614 978 571 1018 b 431 928 474 1018 431 978 b 524 838 431 878 474 838 z "},"f":{"ha":551,"x_min":0,"x_max":0,"o":"m 138 714 l 138 678 l 15 678 l 15 510 l 138 510 l 138 0 l 324 0 l 324 510 l 533 510 l 533 678 l 324 678 l 324 740 b 381 804 324 772 343 804 l 535 804 l 535 972 l 386 972 b 138 714 206 972 138 833 z "},"g":{"ha":850,"x_min":0,"x_max":0,"o":"m 385 75 b 711 383 579 75 711 199 b 611 504 711 438 625 463 b 365 694 600 599 506 694 b 57 383 183 694 57 571 b 385 75 57 199 194 75 z m 385 228 b 210 383 282 228 210 292 b 385 542 210 476 282 542 b 558 383 486 542 558 476 b 385 228 558 292 486 228 z m 399 -268 b 189 -190 276 -268 189 -236 b 399 -112 189 -143 276 -112 b 608 -190 515 -112 608 -143 b 399 -268 608 -236 518 -268 z m 204 -43 l 204 -68 b 19 -217 133 -72 19 -112 b 400 -403 19 -324 178 -403 b 778 -190 617 -403 778 -311 b 399 22 778 -69 617 22 b 235 22 325 22 306 22 b 196 49 211 22 196 31 b 235 75 196 68 211 75 l 383 75 l 385 103 l 165 150 l 165 124 l 156 124 b 57 43 92 124 57 94 b 156 -43 57 -10 92 -43 b 204 -43 167 -43 192 -43 z m 636 504 l 611 504 l 592 407 l 711 383 l 711 479 b 742 510 711 496 725 510 l 822 510 l 822 678 l 669 678 b 613 621 638 678 613 653 b 636 504 613 565 636 504 z "},"h":{"ha":833,"x_min":0,"x_max":0,"o":"m 765 388 l 765 0 l 579 0 l 579 378 b 435 544 579 458 540 539 b 264 382 314 551 271 468 b 261 211 263 344 261 271 l 261 0 l 75 0 l 75 972 l 261 972 l 261 675 b 222 517 261 614 222 517 l 247 517 b 550 688 290 676 446 713 b 765 388 704 650 765 496 z "},"i":{"ha":378,"x_min":0,"x_max":0,"o":"m 308 621 l 308 0 l 122 0 l 122 478 b 90 510 122 496 108 510 l 28 510 l 28 678 l 251 678 b 308 621 283 678 308 653 z m 210 835 b 300 925 257 835 300 876 b 210 1015 300 976 257 1015 b 115 925 160 1015 115 976 b 210 835 115 876 160 835 z "},"í":{"ha":385,"x_min":0,"x_max":0,"o":"m 385 1017 l 215 1017 l 117 799 l 272 799 z m 308 621 l 308 0 l 122 0 l 122 478 b 90 510 122 496 108 510 l 28 510 l 28 678 l 251 678 b 308 621 283 678 308 653 z "},"î":{"ha":385,"x_min":0,"x_max":0,"o":"m 283 1017 l 79 1017 l -49 832 l 108 832 l 178 931 l 185 931 l 254 832 l 411 832 z m 308 621 l 308 0 l 122 0 l 122 478 b 90 510 122 496 108 510 l 28 510 l 28 678 l 251 678 b 308 621 283 678 308 653 z "},"ï":{"ha":385,"x_min":0,"x_max":0,"o":"m 51 836 b 142 926 97 836 142 876 b 51 1017 142 976 97 1017 b -43 926 0 1017 -43 976 b 51 836 -43 876 0 836 z m 329 836 b 419 926 376 836 419 876 b 329 1017 419 976 376 1017 b 236 926 279 1017 236 976 b 329 836 236 876 279 836 z m 308 621 l 308 0 l 122 0 l 122 478 b 90 510 122 496 108 510 l 28 510 l 28 678 l 251 678 b 308 621 283 678 308 653 z "},"j":{"ha":396,"x_min":0,"x_max":0,"o":"m 326 619 l 326 -182 b 125 -386 326 -279 264 -386 b -60 -386 21 -386 -17 -386 l -60 -218 b 82 -218 -46 -218 67 -218 b 140 -158 114 -218 140 -192 l 140 478 b 108 510 140 496 126 510 l 39 510 l 39 678 l 269 678 b 326 619 301 678 326 651 z m 218 835 b 308 925 265 835 308 876 b 218 1015 308 976 265 1015 b 124 925 167 1015 124 976 b 218 835 124 876 167 835 z "},"k":{"ha":768,"x_min":0,"x_max":0,"o":"m 261 972 l 75 972 l 75 0 l 261 0 l 261 222 l 294 222 l 528 0 l 751 -1 l 436 299 l 436 324 l 751 678 l 549 678 l 292 390 l 261 390 z "},"l":{"ha":336,"x_min":0,"x_max":0,"o":"m 75 972 l 75 0 l 261 0 l 261 972 z "},"ĺ":{"ha":347,"x_min":0,"x_max":0,"o":"m 75 972 l 75 0 l 261 0 l 261 972 z m 367 1264 l 197 1264 l 99 1046 l 254 1046 z "},"ľ":{"ha":475,"x_min":0,"x_max":0,"o":"m 75 972 l 75 0 l 261 0 l 261 972 z m 514 972 l 328 972 l 346 585 l 496 585 z "},"ł":{"ha":333,"x_min":0,"x_max":0,"o":"m 75 972 l 75 0 l 261 0 l 261 972 z m 329 526 l 329 667 l 3 511 l 3 371 z "},"m":{"ha":1319,"x_min":0,"x_max":0,"o":"m 1251 392 l 1251 0 l 1065 0 l 1065 383 b 922 543 1065 456 1026 538 b 751 381 797 551 758 461 b 749 219 749 343 749 275 l 749 0 l 579 0 l 579 383 b 435 542 579 456 542 536 b 264 381 310 550 271 461 b 261 219 263 344 261 279 l 261 0 l 75 0 l 75 678 l 261 678 l 261 658 b 222 517 261 597 222 517 l 247 517 b 549 688 292 676 447 713 b 699 517 676 657 700 542 l 724 517 b 1036 688 779 676 935 713 b 1251 392 1189 650 1251 496 z "},"n":{"ha":833,"x_min":0,"x_max":0,"o":"m 765 388 l 765 0 l 579 0 l 579 378 b 435 544 579 458 540 539 b 264 382 314 551 271 468 b 261 211 263 344 261 271 l 261 0 l 75 0 l 75 678 l 261 678 l 261 658 b 222 517 261 597 222 517 l 247 517 b 550 688 290 676 446 713 b 765 388 704 650 765 496 z "},"ň":{"ha":833,"x_min":0,"x_max":0,"o":"m 765 388 l 765 0 l 579 0 l 579 378 b 435 544 579 458 540 539 b 264 382 314 551 271 468 b 261 211 263 344 261 271 l 261 0 l 75 0 l 75 678 l 261 678 l 261 658 b 222 517 261 597 222 517 l 247 517 b 550 688 290 676 446 713 b 765 388 704 650 765 496 z m 319 832 l 524 832 l 651 1017 l 494 1017 l 425 917 l 418 917 l 349 1017 l 192 1017 z "},"o":{"ha":771,"x_min":0,"x_max":0,"o":"m 386 121 b 204 339 253 121 204 238 b 386 557 204 440 253 557 b 567 339 519 557 567 440 b 386 121 567 238 519 121 z m 386 694 b 44 339 138 694 44 503 b 386 -17 44 175 138 -17 b 726 339 633 -17 726 175 b 386 694 726 503 633 694 z "},"ó":{"ha":771,"x_min":0,"x_max":0,"o":"m 386 121 b 204 339 253 121 204 238 b 386 557 204 440 253 557 b 567 339 519 557 567 440 b 386 121 567 238 519 121 z m 386 694 b 44 339 138 694 44 503 b 386 -17 44 175 138 -17 b 726 339 633 -17 726 175 b 386 694 726 503 633 694 z m 575 1017 l 406 1017 l 307 799 l 463 799 z "},"ô":{"ha":771,"x_min":0,"x_max":0,"o":"m 386 121 b 204 339 253 121 204 238 b 386 557 204 440 253 557 b 567 339 519 557 567 440 b 386 121 567 238 519 121 z m 386 694 b 44 339 138 694 44 503 b 386 -17 44 175 138 -17 b 726 339 633 -17 726 175 b 386 694 726 503 633 694 z m 475 1017 l 271 1017 l 143 832 l 300 832 l 369 931 l 376 931 l 446 832 l 603 832 z "},"ö":{"ha":771,"x_min":0,"x_max":0,"o":"m 386 121 b 204 339 253 121 204 238 b 386 557 204 440 253 557 b 567 339 519 557 567 440 b 386 121 567 238 519 121 z m 386 694 b 44 339 138 694 44 503 b 386 -17 44 175 138 -17 b 726 339 633 -17 726 175 b 386 694 726 503 633 694 z m 246 836 b 336 926 292 836 336 876 b 246 1017 336 976 292 1017 b 151 926 194 1017 151 976 b 246 836 151 876 194 836 z m 524 836 b 614 926 571 836 614 876 b 524 1017 614 976 571 1017 b 431 926 474 1017 431 976 b 524 836 431 876 474 836 z "},"ő":{"ha":771,"x_min":0,"x_max":0,"o":"m 386 121 b 204 339 253 121 204 238 b 386 557 204 440 253 557 b 567 339 519 557 567 440 b 386 121 567 238 519 121 z m 386 694 b 44 339 138 694 44 503 b 386 -17 44 175 138 -17 b 726 339 633 -17 726 175 b 386 694 726 503 633 694 z m 689 1017 l 519 1017 l 421 799 l 576 799 z m 463 1017 l 293 1017 l 194 799 l 350 799 z "},"ø":{"ha":771,"x_min":0,"x_max":0,"o":"m 386 121 b 204 339 253 121 204 238 b 386 557 204 440 253 557 b 567 339 519 557 567 440 b 386 121 567 238 519 121 z m 386 694 b 44 339 138 694 44 503 b 386 -17 44 175 138 -17 b 726 339 633 -17 726 175 b 386 694 726 503 633 694 z m 704 692 l 571 692 l 69 -14 l 201 -14 z "},"ǿ":{"ha":771,"x_min":0,"x_max":0,"o":"m 386 121 b 204 339 253 121 204 238 b 386 557 204 440 253 557 b 567 339 519 557 567 440 b 386 121 567 238 519 121 z m 386 694 b 44 339 138 694 44 503 b 386 -17 44 175 138 -17 b 726 339 633 -17 726 175 b 386 694 726 503 633 694 z m 704 692 l 571 692 l 69 -14 l 201 -14 z m 582 1017 l 413 1017 l 314 799 l 469 799 z "},"p":{"ha":844,"x_min":0,"x_max":0,"o":"m 614 339 b 435 151 614 224 535 151 b 256 339 335 151 256 224 b 435 526 256 454 335 526 b 614 339 535 526 614 454 z m 800 339 b 493 694 800 507 706 694 b 256 563 349 694 286 619 l 231 563 b 256 671 231 563 256 619 l 256 678 l 69 678 l 69 -386 l 256 -386 l 256 -49 b 231 117 256 44 231 117 l 256 117 b 488 -17 286 60 349 -17 b 800 339 706 -17 800 171 z "},"q":{"ha":844,"x_min":0,"x_max":0,"o":"m 410 526 b 589 339 510 526 589 454 b 410 151 589 224 510 151 b 231 339 310 151 231 224 b 410 526 231 454 310 526 z m 357 -17 b 589 117 496 -17 558 60 l 614 117 b 589 -49 614 117 589 44 l 589 -386 l 775 -386 l 775 678 l 589 678 l 589 671 b 614 563 589 619 614 563 l 589 563 b 351 694 558 619 496 694 b 44 339 139 694 44 506 b 357 -17 44 171 139 -17 z "},"r":{"ha":625,"x_min":0,"x_max":0,"o":"m 597 678 l 597 510 b 319 225 394 510 319 357 l 319 0 l 133 0 l 133 485 b 108 510 133 500 125 510 l 28 510 l 28 678 l 228 678 b 297 618 265 678 297 658 b 272 432 297 557 272 432 l 297 432 b 597 678 338 576 442 676 z "},"ŕ":{"ha":625,"x_min":0,"x_max":0,"o":"m 597 678 l 597 510 b 319 225 394 510 319 357 l 319 0 l 133 0 l 133 485 b 108 510 133 500 125 510 l 28 510 l 28 678 l 228 678 b 297 618 265 678 297 658 b 272 432 297 557 272 432 l 297 432 b 597 678 338 576 442 676 z m 510 1017 l 340 1017 l 242 799 l 397 799 z "},"ř":{"ha":625,"x_min":0,"x_max":0,"o":"m 597 678 l 597 510 b 319 225 394 510 319 357 l 319 0 l 133 0 l 133 485 b 108 510 133 500 125 510 l 28 510 l 28 678 l 228 678 b 297 618 265 678 297 658 b 272 432 297 557 272 432 l 297 432 b 597 678 338 576 442 676 z m 208 832 l 413 832 l 540 1017 l 383 1017 l 314 917 l 307 917 l 238 1017 l 81 1017 z "},"s":{"ha":685,"x_min":0,"x_max":0,"o":"m 650 218 b 342 -17 650 101 554 -17 b 31 218 126 -17 31 101 l 200 218 b 342 135 200 163 254 135 b 468 213 403 135 468 157 b 42 476 468 347 42 203 b 340 694 42 586 135 694 b 638 476 544 694 638 586 b 638 465 638 472 638 468 l 468 465 b 468 476 468 469 468 472 b 342 543 468 519 415 543 b 225 479 281 543 225 521 b 650 218 225 376 650 499 z "},"š":{"ha":685,"x_min":0,"x_max":0,"o":"m 650 218 b 342 -17 650 101 554 -17 b 31 218 126 -17 31 101 l 200 218 b 342 135 200 163 254 135 b 468 213 403 135 468 157 b 42 476 468 347 42 203 b 340 694 42 586 135 694 b 638 476 544 694 638 586 b 638 465 638 472 638 468 l 468 465 b 468 476 468 469 468 472 b 342 543 468 519 415 543 b 225 479 281 543 225 521 b 650 218 225 376 650 499 z m 233 832 l 438 832 l 565 1017 l 408 1017 l 339 917 l 332 917 l 263 1017 l 106 1017 z "},"t":{"ha":563,"x_min":0,"x_max":0,"o":"m 138 225 l 138 510 l 15 510 l 15 678 l 138 678 l 138 972 l 324 972 l 324 678 l 535 678 l 535 510 l 324 510 l 324 228 b 381 168 324 194 349 168 b 535 168 401 168 521 168 l 535 0 b 361 0 489 0 496 0 b 138 225 204 0 138 117 z "},"ť":{"ha":553,"x_min":0,"x_max":0,"o":"m 138 225 l 138 510 l 15 510 l 15 678 l 138 678 l 138 972 l 324 972 l 324 678 l 535 678 l 535 510 l 324 510 l 324 228 b 381 168 324 194 349 168 b 535 168 401 168 521 168 l 535 0 b 361 0 489 0 496 0 b 138 225 204 0 138 117 z m 572 1264 l 386 1264 l 404 876 l 554 876 z "},"u":{"ha":833,"x_min":0,"x_max":0,"o":"m 68 290 l 68 678 l 254 678 l 254 300 b 397 133 254 219 292 139 b 568 296 519 126 563 210 b 572 467 569 333 572 407 l 572 678 l 758 678 l 758 0 l 572 0 l 572 19 b 610 161 572 81 610 161 l 585 161 b 283 -10 543 1 388 -35 b 68 290 129 28 68 182 z "},"ú":{"ha":833,"x_min":0,"x_max":0,"o":"m 68 290 l 68 678 l 254 678 l 254 300 b 397 133 254 219 292 139 b 568 296 519 126 563 210 b 572 467 569 333 572 407 l 572 678 l 758 678 l 758 0 l 572 0 l 572 19 b 610 161 572 81 610 161 l 585 161 b 283 -10 543 1 388 -35 b 68 290 129 28 68 182 z m 601 1017 l 432 1017 l 333 799 l 489 799 z "},"û":{"ha":833,"x_min":0,"x_max":0,"o":"m 68 290 l 68 678 l 254 678 l 254 300 b 397 133 254 219 292 139 b 568 296 519 126 563 210 b 572 467 569 333 572 407 l 572 678 l 758 678 l 758 0 l 572 0 l 572 19 b 610 161 572 81 610 161 l 585 161 b 283 -10 543 1 388 -35 b 68 290 129 28 68 182 z m 524 1015 l 319 1015 l 192 831 l 349 831 l 418 929 l 425 929 l 494 831 l 651 831 z "},"ü":{"ha":833,"x_min":0,"x_max":0,"o":"m 68 290 l 68 678 l 254 678 l 254 300 b 397 133 254 219 292 139 b 568 296 519 126 563 210 b 572 467 569 333 572 407 l 572 678 l 758 678 l 758 0 l 572 0 l 572 19 b 610 161 572 81 610 161 l 585 161 b 283 -10 543 1 388 -35 b 68 290 129 28 68 182 z m 286 836 b 376 926 332 836 376 876 b 286 1017 376 976 332 1017 b 192 926 235 1017 192 976 b 286 836 192 876 235 836 z m 564 836 b 654 926 611 836 654 876 b 564 1017 654 976 611 1017 b 471 926 514 1017 471 976 b 564 836 471 876 514 836 z "},"ű":{"ha":833,"x_min":0,"x_max":0,"o":"m 68 290 l 68 678 l 254 678 l 254 300 b 397 133 254 219 292 139 b 568 296 519 126 563 210 b 572 467 569 333 572 407 l 572 678 l 758 678 l 758 0 l 572 0 l 572 19 b 610 161 572 81 610 161 l 585 161 b 283 -10 543 1 388 -35 b 68 290 129 28 68 182 z m 717 1017 l 547 1017 l 449 799 l 604 799 z m 490 1017 l 321 1017 l 222 799 l 378 799 z "},"ů":{"ha":833,"x_min":0,"x_max":0,"o":"m 68 290 l 68 678 l 254 678 l 254 300 b 397 133 254 219 292 139 b 568 296 519 126 563 210 b 572 467 569 333 572 407 l 572 678 l 758 678 l 758 0 l 572 0 l 572 19 b 610 161 572 81 610 161 l 585 161 b 283 -10 543 1 388 -35 b 68 290 129 28 68 182 z m 419 986 b 349 1060 368 986 349 1025 b 419 1133 349 1094 368 1133 b 492 1060 472 1133 492 1094 b 419 986 492 1025 472 986 z m 419 1246 b 229 1060 281 1246 229 1147 b 419 874 229 972 281 874 b 611 1060 560 874 611 972 b 419 1246 611 1147 560 1246 z "},"v":{"ha":729,"x_min":0,"x_max":0,"o":"m 400 278 l 538 678 l 721 678 l 496 0 l 232 0 l 8 678 l 192 678 l 328 278 b 353 168 346 224 353 168 l 376 168 b 400 278 376 168 382 224 z "},"w":{"ha":1290,"x_min":0,"x_max":0,"o":"m 956 260 l 1081 678 l 1275 678 l 1072 0 l 800 0 l 678 418 b 658 510 667 467 658 510 l 633 510 b 614 418 633 510 628 467 l 489 0 l 219 0 l 15 678 l 210 678 b 336 261 210 678 336 261 b 360 168 350 213 360 168 l 383 168 b 407 261 383 168 393 213 b 531 678 408 267 531 678 l 764 678 l 886 260 b 908 168 900 208 908 168 l 933 168 b 956 260 933 168 940 208 z "},"x":{"ha":751,"x_min":0,"x_max":0,"o":"m 739 678 l 543 678 l 376 426 l 211 678 l 11 678 l 222 351 l 8 0 l 206 0 l 364 257 l 389 257 l 546 0 l 743 0 l 529 351 z "},"y":{"ha":740,"x_min":0,"x_max":0,"o":"m 408 268 l 553 678 l 732 678 l 417 -229 b 182 -386 390 -306 317 -386 b 22 -386 69 -386 35 -386 l 22 -229 b 190 -229 46 -229 178 -229 b 254 -181 228 -229 247 -204 l 318 0 l 244 0 l 8 678 l 188 678 l 332 268 b 358 168 358 203 358 168 l 382 168 b 408 268 382 168 382 203 z "},"ý":{"ha":740,"x_min":0,"x_max":0,"o":"m 408 268 l 553 678 l 732 678 l 417 -229 b 182 -386 390 -306 317 -386 b 22 -386 69 -386 35 -386 l 22 -229 b 190 -229 46 -229 178 -229 b 254 -181 228 -229 247 -204 l 318 0 l 244 0 l 8 678 l 188 678 l 332 268 b 358 168 358 203 358 168 l 382 168 b 408 268 382 168 382 203 z m 554 1017 l 385 1017 l 286 799 l 442 799 z "},"ÿ":{"ha":740,"x_min":0,"x_max":0,"o":"m 408 268 l 553 678 l 732 678 l 417 -229 b 182 -386 390 -306 317 -386 b 22 -386 69 -386 35 -386 l 22 -229 b 190 -229 46 -229 178 -229 b 254 -181 228 -229 247 -204 l 318 0 l 244 0 l 8 678 l 188 678 l 332 268 b 358 168 358 203 358 168 l 382 168 b 408 268 382 168 382 203 z m 235 836 b 325 926 281 836 325 876 b 235 1017 325 976 281 1017 b 140 926 183 1017 140 976 b 235 836 140 876 183 836 z m 513 836 b 603 926 560 836 603 876 b 513 1017 603 976 560 1017 b 419 926 463 1017 419 976 b 513 836 419 876 463 836 z "},"z":{"ha":696,"x_min":0,"x_max":0,"o":"m 394 501 l 394 526 l 71 526 l 71 678 l 621 678 l 621 525 b 369 256 621 525 399 286 b 275 176 333 218 304 185 l 275 151 l 643 151 l 643 0 l 49 0 l 49 153 b 292 431 49 153 251 389 b 394 501 332 475 365 493 z "},"ž":{"ha":696,"x_min":0,"x_max":0,"o":"m 394 501 l 394 526 l 71 526 l 71 678 l 621 678 l 621 525 b 369 256 621 525 399 286 b 275 176 333 218 304 185 l 275 151 l 643 151 l 643 0 l 49 0 l 49 153 b 292 431 49 153 251 389 b 394 501 332 475 365 493 z m 254 832 l 458 832 l 586 1017 l 429 1017 l 360 917 l 353 917 l 283 1017 l 126 1017 z "},".":{"ha":381,"x_min":0,"x_max":0,"o":"m 193 -17 b 297 88 247 -17 297 29 b 193 192 297 146 247 192 b 83 88 133 192 83 146 b 193 -17 83 29 133 -17 z "},",":{"ha":406,"x_min":0,"x_max":0,"o":"m 297 88 b 193 -17 297 29 247 -17 b 83 88 133 -17 83 29 b 193 192 83 146 133 192 b 297 88 247 192 297 146 z m 222 -12 l 193 192 b 118 -192 385 183 364 -169 l 118 -132 b 222 -12 189 -115 226 -64 z "},":":{"ha":408,"x_min":0,"x_max":0,"o":"m 207 -17 b 311 88 261 -17 311 29 b 207 192 311 146 261 192 b 97 88 147 192 97 146 b 207 -17 97 29 147 -17 z m 207 486 b 311 590 261 486 311 532 b 207 694 311 649 261 694 b 97 590 147 694 97 649 b 207 486 97 532 147 486 z "},";":{"ha":433,"x_min":0,"x_max":0,"o":"m 207 486 b 311 590 261 486 311 532 b 207 694 311 649 261 694 b 97 590 147 694 97 649 b 207 486 97 532 147 486 z m 311 88 b 207 -17 311 29 261 -17 b 97 88 147 -17 97 29 b 207 192 97 146 147 192 b 311 88 261 192 311 146 z m 236 -12 l 207 192 b 132 -192 399 183 378 -169 l 132 -132 b 236 -12 203 -115 240 -64 z "},"!":{"ha":425,"x_min":0,"x_max":0,"o":"m 121 972 l 138 263 l 290 263 l 307 972 z m 215 -17 b 319 88 269 -17 319 29 b 215 192 319 146 269 192 b 106 88 156 192 106 146 b 215 -17 106 29 156 -17 z "},"?":{"ha":778,"x_min":0,"x_max":0,"o":"m 736 731 b 394 390 736 511 389 517 b 531 414 394 390 451 414 l 550 414 l 550 263 l 244 263 b 550 711 244 644 550 561 b 389 821 550 782 490 821 b 228 711 278 821 228 782 b 228 699 228 707 228 701 l 44 699 b 42 731 43 710 42 719 b 389 989 42 864 160 989 b 736 731 619 989 736 864 z m 393 -17 b 499 88 449 -17 499 29 b 393 192 499 146 449 192 b 285 88 335 192 285 146 b 393 -17 285 29 335 -17 z "},"·":{"ha":390,"x_min":0,"x_max":0,"o":"m 197 229 b 310 340 257 229 310 279 b 197 453 310 403 257 453 b 81 340 133 453 81 403 b 197 229 81 279 133 229 z "},"•":{"ha":514,"x_min":0,"x_max":0,"o":"m 260 169 b 433 340 351 169 433 246 b 260 513 433 436 351 513 b 81 340 163 513 81 436 b 260 169 81 246 163 169 z "},"*":{"ha":522,"x_min":0,"x_max":0,"o":"m 310 972 l 213 972 l 213 825 l 65 879 l 31 789 l 188 729 l 94 576 l 178 525 l 261 663 l 347 525 l 428 576 l 336 729 l 492 789 l 456 879 l 310 825 z "},"#":{"ha":965,"x_min":0,"x_max":0,"o":"m 653 972 l 467 0 l 639 0 l 826 972 z m 328 972 l 140 0 l 313 0 l 500 972 z m 57 407 l 57 256 l 864 256 l 864 407 z m 101 714 l 101 563 l 908 563 l 908 714 z "},"/":{"ha":633,"x_min":0,"x_max":0,"o":"m 633 972 l 469 972 l 0 -251 l 164 -251 z "},"\\":{"ha":633,"x_min":0,"x_max":0,"o":"m 164 972 l 0 972 l 469 -251 l 633 -251 z "},"-":{"ha":686,"x_min":0,"x_max":0,"o":"m 86 453 l 86 301 l 600 301 l 600 453 z "},"–":{"ha":879,"x_min":0,"x_max":0,"o":"m 86 453 l 86 301 l 793 301 l 793 453 z "},"—":{"ha":1350,"x_min":0,"x_max":0,"o":"m 86 453 l 86 301 l 1264 301 l 1264 453 z "},"_":{"ha":876,"x_min":0,"x_max":0,"o":"m 86 -17 l 86 -168 l 790 -168 l 790 -17 z "},"(":{"ha":431,"x_min":0,"x_max":0,"o":"m 431 -289 l 260 -289 b 61 342 131 -110 61 125 b 260 972 61 558 131 793 l 431 972 b 247 342 304 797 247 560 b 431 -289 247 124 306 -114 z "},")":{"ha":431,"x_min":0,"x_max":0,"o":"m 0 -289 l 171 -289 b 369 342 300 -110 369 125 b 171 972 369 558 300 793 l 0 972 b 183 342 126 797 183 560 b 0 -289 183 124 125 -114 z "},"{":{"ha":489,"x_min":0,"x_max":0,"o":"m 181 354 l 181 329 b 344 157 296 329 344 238 l 344 36 b 489 -121 344 -37 386 -121 l 489 -289 b 158 61 254 -289 158 -100 l 158 178 b 58 286 158 229 129 286 l 58 399 b 158 506 129 399 158 456 l 158 621 b 489 972 158 783 254 972 l 489 804 b 344 649 386 804 344 721 l 344 528 b 181 354 344 446 296 354 z "},"}":{"ha":490,"x_min":0,"x_max":0,"o":"m 310 329 l 310 354 b 146 526 194 354 146 446 l 146 647 b 1 804 146 721 104 804 l 1 972 b 332 622 236 972 332 783 l 332 506 b 432 397 332 454 361 397 l 432 285 b 332 178 361 285 332 228 l 332 63 b 1 -289 332 -100 236 -289 l 1 -121 b 146 35 104 -121 146 -37 l 146 156 b 310 329 146 238 194 329 z "},"[":{"ha":439,"x_min":0,"x_max":0,"o":"m 278 835 l 278 -150 b 419 -137 278 -150 340 -137 l 439 -137 l 439 -289 l 92 -289 l 92 972 l 439 972 l 439 821 l 419 821 b 278 835 340 821 278 835 z "},"]":{"ha":439,"x_min":0,"x_max":0,"o":"m 161 -150 l 161 835 b 19 821 161 835 99 821 l 0 821 l 0 972 l 347 972 l 347 -289 l 0 -289 l 0 -137 l 19 -137 b 161 -150 99 -137 161 -150 z "},"„":{"ha":689,"x_min":0,"x_max":0,"o":"m 575 88 b 471 -17 575 29 525 -17 b 361 88 411 -17 361 29 b 471 192 361 146 411 192 b 575 88 525 192 575 146 z m 500 -12 l 471 192 b 396 -192 663 183 642 -169 l 396 -132 b 500 -12 467 -115 504 -64 z m 303 88 b 199 -17 303 29 253 -17 b 89 88 139 -17 89 29 b 199 192 89 146 139 192 b 303 88 253 192 303 146 z m 228 -12 l 199 192 b 124 -192 390 183 369 -169 l 124 -132 b 228 -12 194 -115 232 -64 z "},"“":{"ha":688,"x_min":0,"x_max":0,"o":"m 385 885 b 489 989 385 943 435 989 b 599 885 549 989 599 943 b 489 781 599 826 549 781 b 385 885 435 781 385 826 z m 460 985 l 489 781 b 564 1164 297 789 318 1142 l 564 1104 b 460 985 493 1088 456 1036 z m 114 885 b 218 989 114 943 164 989 b 328 885 278 989 328 943 b 218 781 328 826 278 781 b 114 885 164 781 114 826 z m 189 985 l 218 781 b 293 1164 26 789 47 1142 l 293 1104 b 189 985 222 1088 185 1036 z "},"”":{"ha":688,"x_min":0,"x_max":0,"o":"m 575 1151 b 471 1047 575 1093 525 1047 b 361 1151 411 1047 361 1093 b 471 1256 361 1210 411 1256 b 575 1151 525 1256 575 1210 z m 500 1051 l 471 1256 b 396 872 663 1247 642 894 l 396 932 b 500 1051 467 949 504 1000 z m 303 1151 b 199 1047 303 1093 253 1047 b 89 1151 139 1047 89 1093 b 199 1256 89 1210 139 1256 b 303 1151 253 1256 303 1210 z m 228 1051 l 199 1256 b 124 872 390 1247 369 894 l 124 932 b 228 1051 194 949 232 1000 z "},"‘":{"ha":417,"x_min":0,"x_max":0,"o":"m 114 885 b 218 989 114 943 164 989 b 328 885 278 989 328 943 b 218 781 328 826 278 781 b 114 885 164 781 114 826 z m 189 985 l 218 781 b 293 1164 26 789 47 1142 l 293 1104 b 189 985 222 1088 185 1036 z "},"’":{"ha":417,"x_min":0,"x_max":0,"o":"m 303 1151 b 199 1047 303 1093 253 1047 b 89 1151 139 1047 89 1093 b 199 1256 89 1210 139 1256 b 303 1151 253 1256 303 1210 z m 228 1051 l 199 1256 b 124 872 390 1247 369 894 l 124 932 b 228 1051 194 949 232 1000 z "},"«":{"ha":936,"x_min":0,"x_max":0,"o":"m 551 0 l 349 0 l 56 339 l 349 678 l 551 678 b 317 408 551 678 319 411 b 233 350 278 367 242 350 l 233 326 b 317 272 242 326 278 314 b 551 0 319 271 551 0 z m 881 0 l 679 0 l 385 339 l 679 678 l 881 678 b 646 406 881 678 647 408 b 563 350 607 364 571 350 l 563 326 b 646 272 571 326 607 314 b 881 0 647 271 881 0 z "},"»":{"ha":936,"x_min":0,"x_max":0,"o":"m 385 0 b 619 272 385 0 617 271 b 703 326 658 314 694 326 l 703 350 b 619 408 694 350 658 367 b 385 678 617 411 385 678 l 588 678 l 881 339 l 588 0 z m 56 0 b 290 272 56 0 289 271 b 374 326 329 314 365 326 l 374 350 b 290 406 365 350 331 364 b 56 678 289 408 56 678 l 257 678 l 551 339 l 257 0 z "},"‹":{"ha":607,"x_min":0,"x_max":0,"o":"m 551 0 l 350 0 l 56 339 l 350 678 l 551 678 b 318 408 551 678 321 411 b 233 350 278 367 242 350 l 233 326 b 318 272 242 326 278 314 b 551 0 321 271 551 0 z "},"›":{"ha":604,"x_min":0,"x_max":0,"o":"m 56 0 b 289 272 56 0 286 271 b 372 326 328 314 364 326 l 372 350 b 289 408 364 350 328 367 b 56 678 286 411 56 678 l 254 678 l 549 339 l 254 0 z "},"\"":{"ha":632,"x_min":0,"x_max":0,"o":"m 269 972 l 83 972 l 101 585 l 251 585 z m 549 972 l 363 972 l 381 585 l 531 585 z "},"'":{"ha":364,"x_min":0,"x_max":0,"o":"m 275 972 l 89 972 l 107 585 l 257 585 z "},"@":{"ha":1338,"x_min":0,"x_max":0,"o":"m 589 150 b 390 397 444 150 390 285 b 589 647 390 513 444 647 b 788 397 733 647 788 513 b 589 150 788 285 733 150 z m 669 989 b 67 388 338 989 67 719 b 669 -214 67 56 338 -214 b 1110 -19 900 -214 1038 -89 l 949 -19 b 669 -107 867 -74 779 -107 b 175 388 396 -107 175 117 b 669 882 175 661 396 882 b 1163 388 942 882 1163 661 b 1058 196 1163 275 1128 196 b 963 360 992 196 963 260 l 963 738 l 854 738 l 854 707 b 868 549 854 629 868 549 l 843 549 b 579 754 806 660 731 754 b 282 397 363 754 282 563 b 579 42 282 233 363 42 b 843 247 731 42 806 135 l 868 247 b 1054 88 868 138 965 88 b 1271 388 1197 88 1271 213 b 669 989 1271 719 1001 989 z "},"&":{"ha":1065,"x_min":0,"x_max":0,"o":"m 540 236 b 396 136 504 190 464 136 b 247 279 326 136 247 175 b 396 431 247 385 326 429 b 543 350 461 432 510 388 l 586 299 b 540 236 586 299 568 272 z m 1018 433 l 1018 586 b 729 489 896 586 796 565 l 679 425 b 471 663 679 425 547 575 b 410 768 436 703 410 742 b 492 838 410 807 442 838 b 574 768 542 838 574 808 l 760 768 b 489 989 760 889 664 989 b 224 769 321 989 224 889 b 304 601 224 692 264 642 b 421 518 350 557 421 518 l 401 499 b 290 536 388 508 358 536 b 61 286 190 536 61 444 b 389 -17 61 76 214 -17 b 631 115 511 -17 578 47 l 682 186 l 843 0 l 1046 0 l 779 308 l 821 367 b 1018 433 865 422 918 433 z "},"§":{"ha":733,"x_min":0,"x_max":0,"o":"m 367 421 b 228 490 304 421 228 440 b 367 560 228 540 304 560 b 506 490 429 560 506 540 b 367 421 506 440 429 421 z m 372 711 b 261 774 303 711 261 738 b 372 838 261 811 303 838 b 483 774 442 838 483 811 b 483 765 483 761 483 769 l 667 765 b 667 782 667 771 667 776 b 372 989 667 888 568 989 b 78 782 176 989 78 888 b 267 640 78 686 206 643 l 267 615 b 44 464 235 615 44 600 b 367 263 44 329 204 263 b 472 199 432 263 472 238 b 367 135 472 163 432 135 b 261 199 301 135 261 163 b 261 210 261 203 261 206 l 78 210 b 78 197 78 206 78 201 b 368 -17 78 90 178 -17 b 656 197 556 -17 656 90 b 467 342 656 314 535 342 l 467 367 b 689 524 497 367 689 386 b 372 711 689 650 549 711 z "},"©":{"ha":1128,"x_min":0,"x_max":0,"o":"m 425 488 b 565 315 425 407 464 315 b 676 376 622 315 661 347 l 819 376 b 565 197 806 331 746 197 b 293 485 372 197 293 353 b 565 775 293 619 372 775 b 819 594 746 775 806 642 l 676 594 b 565 657 661 624 626 657 b 425 488 464 657 425 565 z m 564 90 b 167 486 344 90 167 267 b 564 882 167 706 344 882 b 961 486 783 882 961 706 b 564 90 961 267 783 90 z m 564 989 b 56 486 283 989 56 764 b 564 -17 56 208 283 -17 b 1072 486 844 -17 1072 208 b 564 989 1072 764 844 989 z "},"®":{"ha":647,"x_min":0,"x_max":0,"o":"m 324 517 b 114 725 172 517 114 629 b 324 933 114 821 172 933 b 535 725 475 933 535 821 b 324 517 535 629 475 517 z m 324 989 b 56 725 129 989 56 847 b 324 461 56 603 129 461 b 592 725 518 461 592 603 b 324 989 592 847 518 989 z m 347 756 l 276 756 l 276 813 l 347 813 b 376 783 367 813 376 800 b 347 756 376 768 367 756 z m 382 725 l 382 732 b 436 796 390 735 436 751 b 354 865 436 836 410 865 l 218 865 l 218 585 l 275 585 l 275 703 l 349 703 b 375 678 364 703 375 692 b 375 585 375 649 375 585 l 428 585 b 428 679 428 585 428 649 b 382 725 428 704 408 725 z "},"℗":{"ha":646,"x_min":0,"x_max":0,"o":"m 360 761 l 286 761 l 286 821 l 360 821 b 394 792 379 821 394 811 b 360 761 394 772 379 761 z m 451 792 b 367 872 451 846 408 872 l 229 872 l 229 575 l 288 575 l 288 710 l 367 710 b 451 792 411 710 451 739 z m 322 517 b 113 725 169 517 113 631 b 322 933 113 819 169 933 b 533 725 476 933 533 819 b 322 517 533 631 476 517 z m 322 989 b 56 725 128 989 56 847 b 322 461 56 603 128 461 b 590 725 518 461 590 603 b 322 989 590 847 518 989 z "},"™":{"ha":876,"x_min":0,"x_max":0,"o":"m 328 972 l 35 972 l 35 910 l 147 910 l 147 585 l 217 585 l 217 910 l 328 910 z m 793 972 l 699 972 l 568 647 l 550 647 l 422 972 l 328 972 l 328 585 l 396 585 l 396 867 l 506 585 l 613 585 l 725 867 l 725 585 l 793 585 z "},"|":{"ha":475,"x_min":0,"x_max":0,"o":"m 161 972 l 161 -289 l 314 -289 l 314 972 z "},"$":{"ha":833,"x_min":0,"x_max":0,"o":"m 336 1110 l 489 1110 l 489 -136 l 336 -136 z m 781 289 b 406 -17 781 149 672 -17 b 32 292 140 -17 32 151 l 218 292 b 407 151 218 228 272 151 b 594 289 540 151 594 225 b 368 408 594 376 451 393 b 38 697 226 435 38 489 b 407 989 38 832 143 989 b 778 697 671 989 778 832 b 778 690 778 696 778 694 l 592 690 b 592 697 592 694 592 696 b 407 821 592 753 540 821 b 224 697 276 821 224 753 b 404 574 224 625 289 592 b 781 289 582 547 781 497 z "},"€":{"ha":1063,"x_min":0,"x_max":0,"o":"m 800 296 l 1003 296 b 560 -17 976 217 874 -17 b 86 486 224 -17 86 254 b 560 989 86 718 224 989 b 1003 676 874 989 976 756 l 800 676 b 558 821 772 735 700 821 b 272 488 354 821 272 640 b 558 151 272 332 354 151 b 800 296 700 151 772 239 z m 25 631 l 665 631 l 665 524 l 25 524 z m 25 449 l 667 449 l 667 342 l 25 342 z "},"£":{"ha":886,"x_min":0,"x_max":0,"o":"m 682 208 l 682 278 l 835 278 l 835 144 b 700 0 835 56 789 11 l 38 0 l 38 168 b 133 493 151 194 185 342 l 40 493 l 40 601 l 110 601 b 463 989 72 756 186 989 b 801 707 717 989 793 788 l 621 707 b 463 821 614 735 578 821 b 297 601 324 821 268 700 l 629 601 l 629 493 l 311 493 b 163 168 358 333 303 201 l 163 143 b 421 168 163 143 342 168 l 640 168 b 682 208 665 168 682 183 z "},"¥":{"ha":908,"x_min":0,"x_max":0,"o":"m 493 638 l 690 972 l 881 972 l 547 403 l 547 0 l 361 0 l 361 404 l 28 972 l 218 972 l 414 638 b 442 572 433 604 442 572 l 467 572 b 493 638 467 572 474 604 z m 182 486 l 735 486 l 735 379 l 182 379 z m 182 292 l 735 292 l 735 183 l 182 183 z "},"+":{"ha":765,"x_min":0,"x_max":0,"o":"m 458 746 l 306 746 l 306 542 l 103 542 l 103 389 l 306 389 l 306 186 l 458 186 l 458 389 l 663 389 l 663 542 l 458 542 z "},"−":{"ha":808,"x_min":0,"x_max":0,"o":"m 103 543 l 103 390 l 706 390 l 706 543 z "},"×":{"ha":732,"x_min":0,"x_max":0,"o":"m 618 607 l 510 715 l 365 571 l 222 715 l 114 608 l 257 464 l 114 319 l 222 211 l 365 357 l 510 213 l 618 319 l 474 464 z "},"÷":{"ha":765,"x_min":0,"x_max":0,"o":"m 103 490 l 103 339 l 663 339 l 663 490 z m 383 82 b 476 175 432 82 476 122 b 383 268 476 228 432 268 b 285 175 329 268 285 228 b 383 82 285 122 329 82 z m 383 561 b 476 654 432 561 476 603 b 383 747 476 707 432 747 b 285 654 329 747 285 707 b 383 561 285 603 329 561 z "},"=":{"ha":765,"x_min":0,"x_max":0,"o":"m 103 397 l 103 246 l 663 246 l 663 397 z m 103 678 l 103 526 l 663 526 l 663 678 z "},"≠":{"ha":771,"x_min":0,"x_max":0,"o":"m 106 397 l 106 246 l 665 246 l 665 397 z m 106 678 l 106 526 l 665 526 l 665 678 z m 528 776 l 113 146 l 242 146 l 657 776 z "},">":{"ha":765,"x_min":0,"x_max":0,"o":"m 103 257 l 103 96 l 663 296 l 663 521 l 103 722 l 103 560 b 433 440 103 560 414 447 b 522 415 471 426 522 415 l 522 400 b 433 378 522 400 472 390 b 103 257 407 368 103 257 z "},"<":{"ha":765,"x_min":0,"x_max":0,"o":"m 663 257 b 332 378 663 257 358 368 b 243 400 293 390 243 400 l 243 415 b 332 440 243 415 294 426 b 663 560 351 447 663 560 l 663 722 l 103 521 l 103 296 l 663 96 z "},"≥":{"ha":765,"x_min":0,"x_max":0,"o":"m 103 151 l 103 0 l 661 0 l 661 151 z m 103 364 l 103 201 l 663 403 l 663 628 l 103 828 l 103 665 b 433 546 103 665 408 554 b 522 521 469 533 522 521 l 522 506 b 433 483 522 506 472 496 b 103 364 411 476 103 364 z "},"≤":{"ha":765,"x_min":0,"x_max":0,"o":"m 663 151 l 663 0 l 103 0 l 103 151 z m 663 364 b 332 483 663 364 353 476 b 243 506 294 497 243 506 l 243 522 b 332 547 243 522 292 533 b 663 667 356 554 663 667 l 663 828 l 103 628 l 103 403 l 663 201 z "},"±":{"ha":754,"x_min":0,"x_max":0,"o":"m 97 132 l 97 0 l 657 0 l 657 132 z m 453 742 l 300 742 l 300 554 l 97 554 l 97 403 l 300 403 l 300 215 l 453 215 l 453 403 l 657 403 l 657 554 l 453 554 z "},"≈":{"ha":839,"x_min":0,"x_max":0,"o":"m 583 740 l 736 740 b 582 464 736 617 732 464 b 303 563 492 464 367 563 b 256 461 256 563 256 518 l 103 461 b 256 738 103 585 106 738 b 536 639 346 738 471 639 b 583 740 582 639 583 683 z m 583 422 l 736 422 b 582 146 736 299 732 146 b 303 243 492 146 367 243 b 256 142 256 243 256 200 l 103 142 b 256 418 103 265 106 418 b 536 321 346 418 471 321 b 583 422 582 321 583 364 z "},"~":{"ha":838,"x_min":0,"x_max":0,"o":"m 582 604 l 735 604 b 582 328 735 481 732 328 b 303 425 492 328 367 425 b 256 324 256 425 256 382 l 103 324 b 256 600 103 447 106 600 b 536 503 346 600 471 503 b 582 604 582 503 582 546 z "},"^":{"ha":781,"x_min":0,"x_max":0,"o":"m 531 674 l 694 674 l 490 1178 l 292 1178 l 86 674 l 250 674 b 358 935 250 674 357 932 b 378 1038 376 981 378 1038 l 403 1038 b 424 935 403 1038 404 981 b 531 674 425 932 531 674 z "},"%":{"ha":1163,"x_min":0,"x_max":0,"o":"m 311 0 l 1043 972 l 851 972 l 119 0 z m 282 663 b 186 756 213 663 186 713 b 282 849 186 797 213 849 b 376 756 350 849 376 797 b 282 663 376 713 350 663 z m 282 989 b 42 756 107 989 42 864 b 282 522 42 647 107 522 b 521 756 456 522 521 647 b 282 989 521 864 456 989 z m 881 125 b 785 217 811 125 785 175 b 881 310 785 260 811 310 b 978 217 950 310 978 260 b 881 125 978 175 950 125 z m 881 450 b 642 217 707 450 642 325 b 881 -17 642 110 707 -17 b 1121 217 1056 -17 1121 110 b 881 450 1121 325 1056 450 z "},"¨":{"ha":607,"x_min":0,"x_max":0,"o":"m 167 1083 b 257 1174 213 1083 257 1124 b 167 1264 257 1224 213 1264 b 72 1174 115 1264 72 1224 b 167 1083 72 1124 115 1083 z m 444 1083 b 535 1174 492 1083 535 1124 b 444 1264 535 1224 492 1264 b 351 1174 394 1264 351 1224 b 444 1083 351 1124 394 1083 z "},"˙":{"ha":301,"x_min":0,"x_max":0,"o":"m 153 1083 b 243 1174 199 1083 243 1124 b 153 1264 243 1224 199 1264 b 58 1174 101 1264 58 1224 b 153 1083 58 1124 101 1083 z "},"`":{"ha":392,"x_min":0,"x_max":0,"o":"m 67 1264 l 179 1046 l 335 1046 l 238 1264 z "},"´":{"ha":392,"x_min":0,"x_max":0,"o":"m 325 1264 l 156 1264 l 57 1046 l 213 1046 z "},"˝":{"ha":618,"x_min":0,"x_max":0,"o":"m 550 1264 l 381 1264 l 282 1046 l 438 1046 z m 324 1264 l 154 1264 l 56 1046 l 211 1046 z "},"ˆ":{"ha":571,"x_min":0,"x_max":0,"o":"m 388 1264 l 183 1264 l 56 1079 l 213 1079 l 282 1178 l 289 1178 l 358 1079 l 515 1079 z "},"ˇ":{"ha":571,"x_min":0,"x_max":0,"o":"m 183 1079 l 388 1079 l 515 1264 l 358 1264 l 289 1164 l 282 1164 l 213 1264 l 56 1264 z "},"˘":{"ha":510,"x_min":0,"x_max":0,"o":"m 451 1264 l 326 1264 b 254 1190 326 1231 307 1190 b 183 1264 204 1190 183 1231 l 58 1264 b 254 1071 58 1174 113 1071 b 451 1264 399 1071 451 1174 z "},"˚":{"ha":493,"x_min":0,"x_max":0,"o":"m 246 1153 b 175 1226 194 1153 175 1192 b 246 1300 175 1261 194 1300 b 318 1226 299 1300 318 1261 b 246 1153 318 1192 299 1153 z m 246 1413 b 56 1226 107 1413 56 1314 b 246 1040 56 1139 107 1040 b 438 1226 386 1040 438 1139 b 246 1413 438 1314 386 1413 z "}}}
